<?xml version="1.0" encoding="UTF-8"?>
<svg width="1059px" height="320px" viewBox="0 0 1059 320" version="1.1" xmlns="http://www.w3.org/2000/svg" xmlns:xlink="http://www.w3.org/1999/xlink">
    <title>Group 5</title>
    <defs>
        <linearGradient x1="8.40554831%" y1="3.39304458e-14%" x2="91.5944517%" y2="100%" id="linearGradient-1">
            <stop stop-color="#FFC99F" offset="0%"></stop>
            <stop stop-color="#FF9966" offset="100%"></stop>
        </linearGradient>
        <linearGradient x1="0.59112781%" y1="6.36966587e-13%" x2="99.4088722%" y2="100%" id="linearGradient-2">
            <stop stop-color="#FFC99F" offset="0%"></stop>
            <stop stop-color="#FF9966" offset="100%"></stop>
        </linearGradient>
        <linearGradient x1="10.552946%" y1="-3.43454537e-13%" x2="89.447054%" y2="100%" id="linearGradient-3">
            <stop stop-color="#FFC99F" offset="0%"></stop>
            <stop stop-color="#FF9966" offset="100%"></stop>
        </linearGradient>
        <linearGradient x1="10.259717%" y1="-3.02718612e-13%" x2="89.740283%" y2="100%" id="linearGradient-4">
            <stop stop-color="#FFC99F" offset="0%"></stop>
            <stop stop-color="#FF9966" offset="100%"></stop>
        </linearGradient>
        <linearGradient x1="34.4052452%" y1="-2.86901579e-13%" x2="65.5947548%" y2="100%" id="linearGradient-5">
            <stop stop-color="#FFC99F" offset="0%"></stop>
            <stop stop-color="#FF9966" offset="100%"></stop>
        </linearGradient>
    </defs>
    <g id="Page-1" stroke="none" stroke-width="1" fill="none" fill-rule="evenodd">
        <g id="Group-5" transform="translate(0.708984, 0.058594)" fill-rule="nonzero">
            <g id="T" fill="url(#linearGradient-1)">
                <path d="M217.041016,124.755859 L217.041016,296.386719 C209.554036,302.897135 199.544271,308.349609 187.011719,312.744141 C174.479167,317.138672 159.261068,319.335938 141.357422,319.335938 C123.453776,319.335938 108.235677,315.348307 95.703125,307.373047 C81.5429688,298.746745 74.4628906,286.539714 74.4628906,270.751953 L74.4628906,113.525391 L17.578125,113.525391 C5.859375,96.7610677 0,78.4505208 0,58.59375 C0,45.0846354 2.15657552,33.3251953 6.46972656,23.3154297 C10.7828776,13.3056641 16.1132812,5.53385417 22.4609375,0 L274.902344,0 C279.622396,7.32421875 283.528646,16.1946615 286.621094,26.6113281 C289.713542,37.0279948 291.259766,47.3632812 291.259766,57.6171875 C291.259766,76.8229167 287.027995,90.9423828 278.564453,99.9755859 C270.100911,109.008789 258.707682,113.525391 244.384766,113.525391 L172.851562,113.525391 C172.363281,114.664714 172.119141,115.885417 172.119141,117.1875 C172.119141,120.117188 173.828125,122.070312 177.246094,123.046875 C180.826823,124.186198 188.476563,124.755859 200.195312,124.755859 L217.041016,124.755859 Z" id="Path"></path>
            </g>
            <path d="M394.891016,298.191406 C444.941016,298.191406 482.741016,262.491406 482.741016,209.641406 C482.741016,158.541406 444.941016,121.091406 394.891016,121.091406 C344.841016,121.091406 306.691016,158.541406 306.691016,209.641406 C306.691016,262.491406 344.841016,298.191406 394.891016,298.191406 Z M394.891016,265.291406 C365.841016,265.291406 342.041016,243.941406 342.041016,209.641406 C342.041016,174.991406 366.191016,153.291406 394.891016,153.291406 C423.591016,153.291406 447.391016,174.991406 447.391016,209.641406 C447.391016,243.941406 423.941016,265.291406 394.891016,265.291406 Z" id="Shape" fill="url(#linearGradient-2)"></path>
            <path d="M561.841016,140.341406 C561.841016,129.141406 552.741016,123.191406 543.991016,123.191406 C534.891016,123.191406 525.791016,129.141406 525.441016,141.741406 C525.091016,151.191406 525.091016,165.191406 525.091016,179.541406 C525.091016,202.991406 525.441016,228.191406 525.791016,239.391406 C527.191016,278.591406 556.241016,298.191406 586.691016,298.191406 C605.941016,298.191406 625.891016,290.491406 639.541016,275.091406 C640.241016,274.391406 640.591016,274.041406 640.941016,274.041406 C641.291016,274.041406 641.641016,274.741406 641.991016,275.791406 C645.841016,287.341406 650.741016,295.741406 662.641016,295.741406 C671.741016,295.741406 680.841016,288.741406 680.841016,277.541406 C680.841016,274.041406 680.141016,269.841406 677.691016,265.291406 C671.391016,253.041406 668.241016,237.991406 668.241016,222.591406 C668.241016,199.841406 668.941016,178.491406 669.991016,141.041406 C669.991016,140.691406 669.991016,140.691406 669.991016,140.341406 C669.991016,128.791406 660.541016,122.841406 651.441016,122.841406 C642.341016,122.841406 633.241016,128.441406 633.591016,140.691406 C634.291016,161.691406 634.641016,179.541406 634.641016,193.891406 C634.641016,208.241406 634.291016,219.091406 633.941016,226.791406 C632.891016,249.191406 610.491016,266.341406 590.891016,266.341406 C576.191016,266.341406 563.241016,256.891406 561.841016,234.141406 C561.491016,228.541406 561.141016,216.641406 561.141016,202.991406 C561.141016,181.291406 561.491016,155.041406 561.841016,140.691406 L561.841016,140.341406 Z" id="Path" fill="url(#linearGradient-3)"></path>
            <path d="M870.541016,258.291406 C870.541016,248.491406 861.091016,239.741406 850.941016,239.741406 C846.041016,239.741406 840.791016,241.841406 836.591016,247.441406 C828.891016,257.941406 814.191016,263.541406 799.491016,263.541406 C751.191016,263.541406 747.691016,216.991406 747.691016,209.291406 C747.691016,177.441406 769.041016,154.341406 798.791016,154.341406 C811.041016,154.341406 823.291016,158.541406 830.641016,167.641406 C835.191016,173.241406 840.441016,175.341406 845.341016,175.341406 C855.141016,175.341406 863.891016,166.941406 863.891016,157.141406 C863.891016,142.791406 838.341016,120.741406 800.891016,120.741406 C745.941016,120.741406 712.341016,163.791406 712.341016,211.041406 C712.341016,248.491406 736.141016,298.191406 799.841016,298.191406 C840.791016,298.191406 870.541016,273.341406 870.541016,258.291406 Z" id="Path" fill="url(#linearGradient-4)"></path>
            <path d="M1021.04102,279.291406 C1021.04102,290.491406 1030.14102,296.791406 1039.24102,296.791406 C1048.34102,296.791406 1057.09102,290.841406 1057.44102,278.241406 C1057.79102,270.891406 1057.79102,261.091406 1057.79102,250.241406 C1057.79102,224.341406 1057.09102,193.191406 1056.74102,180.591406 C1055.34102,136.141406 1024.89102,120.391406 995.141016,120.391406 C976.941016,120.391406 959.091016,126.341406 947.891016,135.091406 C946.841016,135.791406 946.491016,136.141406 946.141016,136.141406 C945.441016,136.141406 945.441016,135.441406 945.441016,134.041406 C945.791016,122.141406 946.141016,80.1414063 946.491016,46.8914063 C946.491016,35.6914062 937.741016,30.4414062 928.641016,30.4414062 C919.541016,30.4414062 910.091016,36.0414063 910.091016,46.5414063 C910.091016,69.9914062 910.441016,111.641406 910.441016,155.391406 C910.441016,199.491406 910.091016,245.691406 909.041016,278.941406 C909.041016,279.291406 909.041016,279.291406 909.041016,279.641406 C909.041016,290.841406 918.141016,296.791406 927.591016,296.791406 C941.591016,296.791406 945.791016,286.291406 945.441016,278.941406 C944.741016,254.091406 944.391016,233.441406 944.391016,217.341406 C944.391016,205.791406 944.391016,196.691406 944.741016,190.391406 C945.791016,168.341406 968.191016,152.941406 988.491016,152.941406 C1004.59102,152.941406 1019.64102,162.741406 1021.04102,186.541406 C1021.39102,192.141406 1021.74102,203.691406 1021.74102,217.341406 C1021.74102,238.691406 1021.39102,264.591406 1021.04102,278.941406 L1021.04102,279.291406 Z" id="Path" fill="url(#linearGradient-5)"></path>
        </g>
    </g>
</svg>